<?xml version="1.0" encoding="UTF-8"?>
<svg version="1.1" viewBox="0 0 900 900" width="225" height="225" xmlns="http://www.w3.org/2000/svg">
<path transform="translate(417)" d="m0 0h67l40 6 26 5 27 7 36 12 32 14 27 14 23 14 20 14 13 10 11 9 14 12 8 8 8 7 12 13 11 12 11 14 8 10 12 17 12 19 12 21 13 26 13 32 10 31 6 25 6 31 5 38v56l-5 39-6 32-5 21-9 29-10 26-11 24-14 27-13 21-14 20-10 13-9 11-9 10-7 8-25 25-8 7-17 14-19 14-15 10-20 12-26 14-24 11-24 9-28 9-24 6-26 5-27 4-17 2h-56l-50-7-30-6-34-10-25-9-27-12-22-11-27-16-16-11-19-14-13-11-8-7-12-11-21-21-7-8-9-10-24-32-15-24-16-29-11-24-10-26-8-24-6-22-6-31-4-29-2-16v-61l7-49 7-32 10-33 9-24 9-20 8-17 11-20 8-13 12-18 11-15 11-14 9-10 7-8 11-12 10-10h2v-2l8-7 15-13 18-14 27-18 20-12 27-14 25-11 25-9 26-8 31-7 30-5zm14 140-3 8-20 81v2l-11 2-24 7-22 9-17 9-18 12-14 11-12 11-11 11-13 17-10 15-9 16-9 21-7 22-5 26-2 22v15l2 20 5 25 6 20 6 15 8 16 6 11 13 19 13 15 6 7 8 7 9 8h2v8l-19 78-1 9 69 17h4l5-19 12-49v-3l29 7 8 1-3 9-14 56-1 7 8 3 57 14 9 1 16-65 5-19 1-6 21-5 18-6 21-9 18-10 12-8 13-10 12-11 16-16 13-17 2-4-9-3-67-17h-5l-12 11-16 11-17 9-20 7-18 4-8 1h-32l-13-2-19-5-20-8-17-10-14-11-11-10-9-11-9-13-6-10-9-22-5-21-2-14v-20l4-25 8-24 9-17 8-11 8-10 15-15 14-10 14-8 13-6 15-5 21-4h38l17 3 17 5 18 8 14 8 13 10 12 11 11 13 10 15 10 21 4 11 2 2 25 6 53 13 2-2-6-30-7-23-10-23-12-21-10-14-11-13-9-10-13-12-6-5 2-10 18-73 1-9-67-17h-6l-8 30-9 37v4l-27-7-9-2 4-17 13-52v-3l-15-4-56-14z" fill="#ECB81E"/>
</svg>
